<svg width="13" height="12" viewBox="0 0 13 12" fill="none" xmlns="http://www.w3.org/2000/svg">
<path d="M11.8368 5.62163L5.93367 0.498193C5.88836 0.459131 5.83054 0.437256 5.76961 0.437256H4.38679C4.27117 0.437256 4.21804 0.581006 4.30554 0.656006L9.77742 5.40601H0.633667C0.564917 5.40601 0.508667 5.46226 0.508667 5.53101V6.46851C0.508667 6.53726 0.564917 6.59351 0.633667 6.59351H9.77586L4.30398 11.3435C4.21648 11.4201 4.2696 11.5623 4.38523 11.5623H5.81492C5.84461 11.5623 5.87429 11.5513 5.89617 11.531L11.8368 6.37788C11.8909 6.33084 11.9343 6.27275 11.964 6.20752C11.9937 6.14229 12.0091 6.07144 12.0091 5.99976C12.0091 5.92807 11.9937 5.85723 11.964 5.79199C11.9343 5.72676 11.8909 5.66867 11.8368 5.62163Z" fill="#096640"/>
</svg>
