<svg width="15" height="12" viewBox="0 0 10 9" fill="none" xmlns="http://www.w3.org/2000/svg">
<path d="M3.51762 4.11168H8.87477C8.92387 4.11168 8.96405 4.0715 8.96405 4.02239V3.39739C8.96405 3.34828 8.92387 3.30811 8.87477 3.30811H3.51762C3.46851 3.30811 3.42834 3.34828 3.42834 3.39739V4.02239C3.42834 4.0715 3.46851 4.11168 3.51762 4.11168ZM3.42834 6.38846C3.42834 6.43757 3.46851 6.47775 3.51762 6.47775H8.87477C8.92387 6.47775 8.96405 6.43757 8.96405 6.38846V5.76346C8.96405 5.71436 8.92387 5.67418 8.87477 5.67418H3.51762C3.46851 5.67418 3.42834 5.71436 3.42834 5.76346V6.38846ZM9.05334 0.964355H0.303336C0.254229 0.964355 0.21405 1.00453 0.21405 1.05364V1.67864C0.21405 1.72775 0.254229 1.76793 0.303336 1.76793H9.05334C9.10244 1.76793 9.14262 1.72775 9.14262 1.67864V1.05364C9.14262 1.00453 9.10244 0.964355 9.05334 0.964355ZM9.05334 8.01793H0.303336C0.254229 8.01793 0.21405 8.05811 0.21405 8.10721V8.73221C0.21405 8.78132 0.254229 8.8215 0.303336 8.8215H9.05334C9.10244 8.8215 9.14262 8.78132 9.14262 8.73221V8.10721C9.14262 8.05811 9.10244 8.01793 9.05334 8.01793ZM0.553336 6.34494L2.29776 4.97105C2.3095 4.96182 2.319 4.95004 2.32553 4.9366C2.33205 4.92317 2.33545 4.90842 2.33545 4.89349C2.33545 4.87855 2.33205 4.8638 2.32553 4.85037C2.319 4.83693 2.3095 4.82515 2.29776 4.81592L0.553336 3.44092C0.488604 3.38958 0.392622 3.43534 0.392622 3.51793V6.26681C0.392616 6.28545 0.397855 6.30372 0.407741 6.31952C0.417627 6.33533 0.431761 6.34803 0.448526 6.35618C0.465291 6.36433 0.48401 6.36759 0.502545 6.36561C0.52108 6.36362 0.538681 6.35646 0.553336 6.34494Z"
      fill="#fff"/>
</svg>
