<?xml version="1.0" encoding="iso-8859-1"?>
<!-- Generator: Adobe Illustrator 19.0.0, SVG Export Plug-In . SVG Version: 6.00 Build 0)  -->
<svg width="16" height="16" version="1.1" id="Capa_1" xmlns="http://www.w3.org/2000/svg" xmlns:xlink="http://www.w3.org/1999/xlink" x="0px" y="0px"
	 viewBox="0 0 502.664 502.664" style="enable-background:new 0 0 502.664 502.664;" xml:space="preserve">
<g>
	<g>
		<g>
			<path style="fill:#096640;" d="M382.881,198.732V56.666c0-22.822-18.68-41.502-41.524-41.502H41.524
				C18.68,15.164,0,33.845,0,56.666V356.5c0,22.822,18.68,41.502,41.524,41.502h181.173c21.981,52.568,73.837,89.497,134.364,89.497
				c80.416,0,145.603-65.187,145.603-145.603C502.664,270.303,450.959,210.919,382.881,198.732z M213.076,362.432H31.429V101.232
				h320.024v95.343c-77.784,2.977-139.973,66.783-139.973,145.322C211.458,348.886,212.127,355.724,213.076,362.432z
				 M437.477,370.306h-53.884v53.884h-53.043v-53.884h-53.884v-53.043h53.884v-53.884h53.043v53.884h53.884V370.306z"/>
		</g>
	</g>
	<g>
	</g>
	<g>
	</g>
	<g>
	</g>
	<g>
	</g>
	<g>
	</g>
	<g>
	</g>
	<g>
	</g>
	<g>
	</g>
	<g>
	</g>
	<g>
	</g>
	<g>
	</g>
	<g>
	</g>
	<g>
	</g>
	<g>
	</g>
	<g>
	</g>
</g>
<g>
</g>
<g>
</g>
<g>
</g>
<g>
</g>
<g>
</g>
<g>
</g>
<g>
</g>
<g>
</g>
<g>
</g>
<g>
</g>
<g>
</g>
<g>
</g>
<g>
</g>
<g>
</g>
<g>
</g>
</svg>
