<svg width="15" height="12" viewBox="0 0 10 9" fill="none" xmlns="http://www.w3.org/2000/svg">
<path d="M3.51762 4.11168H8.87477C8.92387 4.11168 8.96405 4.0715 8.96405 4.02239V3.39739C8.96405 3.34828 8.92387 3.30811 8.87477 3.30811H3.51762C3.46851 3.30811 3.42834 3.34828 3.42834 3.39739V4.02239C3.42834 4.0715 3.46851 4.11168 3.51762 4.11168ZM3.42834 6.38846C3.42834 6.43757 3.46851 6.47775 3.51762 6.47775H8.87477C8.92387 6.47775 8.96405 6.43757 8.96405 6.38846V5.76346C8.96405 5.71436 8.92387 5.67418 8.87477 5.67418H3.51762C3.46851 5.67418 3.42834 5.71436 3.42834 5.76346V6.38846ZM9.05334 0.964355H0.303336C0.254229 0.964355 0.21405 1.00453 0.21405 1.05364V1.67864C0.21405 1.72775 0.254229 1.76793 0.303336 1.76793H9.05334C9.10244 1.76793 9.14262 1.72775 9.14262 1.67864V1.05364C9.14262 1.00453 9.10244 0.964355 9.05334 0.964355ZM9.05334 8.01793H0.303336C0.254229 8.01793 0.21405 8.05811 0.21405 8.10721V8.73221C0.21405 8.78132 0.254229 8.8215 0.303336 8.8215H9.05334C9.10244 8.8215 9.14262 8.78132 9.14262 8.73221V8.10721C9.14262 8.05811 9.10244 8.01793 9.05334 8.01793ZM0.251997 4.96994L1.99642 6.34382C2.06115 6.39516 2.15713 6.3494 2.15713 6.26681V3.51904C2.15713 3.43645 2.06226 3.3907 1.99642 3.44203L0.251997 4.81592C0.240267 4.82504 0.230776 4.83672 0.224247 4.85006C0.217717 4.86341 0.214323 4.87807 0.214323 4.89293C0.214323 4.90778 0.217717 4.92245 0.224247 4.93579C0.230776 4.94914 0.240267 4.96082 0.251997 4.96994Z" fill="#096640"/>
</svg>
