<svg width="14" height="94" viewBox="0 0 14 94" xmlns="http://www.w3.org/2000/svg" xmlns:xlink="http://www.w3.org/1999/xlink">
<defs>
	<g id="sort">
	<path d="M12 10.75C12 10.9193 11.9382 11.0658 11.8145 11.1895L7.43945 15.5645C7.31576 15.6882 7.16927 15.75 7 15.75C6.83073 15.75 6.68424 15.6882 6.56055 15.5645L2.18555 11.1895C2.06185 11.0658 2 10.9193 2 10.75C2 10.5807 2.06185 10.4342 2.18555 10.3105C2.30924 10.1868 2.45573 10.125 2.625 10.125H11.375C11.5443 10.125 11.6908 10.1868 11.8145 10.3105C11.9382 10.4342 12 10.5807 12 10.75ZM12 7C12 7.16927 11.9382 7.31576 11.8145 7.43945C11.6908 7.56315 11.5443 7.625 11.375 7.625H2.625C2.45573 7.625 2.30924 7.56315 2.18555 7.43945C2.06185 7.31576 2 7.16927 2 7C2 6.83073 2.06185 6.68424 2.18555 6.56055L6.56055 2.18555C6.68424 2.06185 6.83073 2 7 2C7.16927 2 7.31576 2.06185 7.43945 2.18555L11.8145 6.56055C11.9382 6.68424 12 6.83073 12 7Z"/>
</g>
    <g id="ascending">
        <path d="M12 50.5C12 50.6693 11.9382 50.8158 11.8145 50.9395C11.6908 51.0632 11.5443 51.125 11.375 51.125H2.625C2.45573 51.125 2.30924 51.0632 2.18555 50.9395C2.06185 50.8158 2 50.6693 2 50.5C2 50.3307 2.06185 50.1842 2.18555 50.0605L6.56055 45.6855C6.68424 45.5618 6.83073 45.5 7 45.5C7.16927 45.5 7.31576 45.5618 7.43945 45.6855L11.8145 50.0605C11.9382 50.1842 12 50.3307 12 50.5Z" />
    </g>
    <g id="descending">
        <path d="M12 73.375C12 73.5443 11.9382 73.6908 11.8145 73.8145L7.43945 78.1895C7.31576 78.3132 7.16927 78.375 7 78.375C6.83073 78.375 6.68424 78.3132 6.56055 78.1895L2.18555 73.8145C2.06185 73.6908 2 73.5443 2 73.375C2 73.2057 2.06185 73.0592 2.18555 72.9355C2.30924 72.8118 2.45573 72.75 2.625 72.75H11.375C11.5443 72.75 11.6908 72.8118 11.8145 72.9355C11.9382 73.0592 12 73.2057 12 73.375Z"/>
    </g>
</defs>
 <use xlink:href="#sort" x="0" y="0" fill="#090B09" />
 <use xlink:href="#sort" x="0" y="20" fill="#096640" />
 <use xlink:href="#ascending" x="0" y="0" fill="#090B09" />
 <use xlink:href="#ascending" x="0" y="12" fill="#096640" />
 <use xlink:href="#descending" x="0" y="0" fill="#090B09" />
 <use xlink:href="#descending" x="0" y="12" fill="#096640" />
</svg>